<mxfile host="app.diagrams.net" agent="Mozilla/5.0 (Windows NT 10.0; Win64; x64) AppleWebKit/537.36 (KHTML, like Gecko) Chrome/135.0.0.0 Safari/537.36 Edg/135.0.0.0" version="26.2.9">
  <diagram id="6a731a19-8d31-9384-78a2-239565b7b9f0" name="Page-1">
    <mxGraphModel dx="1413" dy="1000" grid="1" gridSize="10" guides="1" tooltips="1" connect="1" arrows="1" fold="1" page="1" pageScale="1" pageWidth="827" pageHeight="1169" background="none" math="0" shadow="0">
      <root>
        <mxCell id="0" />
        <mxCell id="1" parent="0" />
        <mxCell id="oVEx0SljTwmEqMyn1o7I-2266" value="&lt;font style=&quot;font-size: 18px;&quot;&gt;2 wi-fi modem (LT) + 2 hub, 2 wi-fi modem (TH)&lt;/font&gt;" style="rounded=0;whiteSpace=wrap;html=1;" vertex="1" parent="1">
          <mxGeometry x="440" y="290" width="380" height="60" as="geometry" />
        </mxCell>
        <mxCell id="oVEx0SljTwmEqMyn1o7I-2267" value="&lt;font style=&quot;font-size: 18px;&quot;&gt;2 wi-fi modem (LT) + 2 hub, 2 wi-fi modem (TH)&lt;/font&gt;" style="rounded=0;whiteSpace=wrap;html=1;" vertex="1" parent="1">
          <mxGeometry x="440" y="360" width="380" height="60" as="geometry" />
        </mxCell>
        <mxCell id="oVEx0SljTwmEqMyn1o7I-2268" value="&lt;font style=&quot;font-size: 18px;&quot;&gt;6 wi-fi modem (LT) + 2 wi-fi modem (LV)&lt;/font&gt;" style="rounded=0;whiteSpace=wrap;html=1;" vertex="1" parent="1">
          <mxGeometry x="440" y="430" width="440" height="60" as="geometry" />
        </mxCell>
        <mxCell id="oVEx0SljTwmEqMyn1o7I-2269" value="&lt;font style=&quot;font-size: 18px;&quot;&gt;6 wi-fi modem (LT) + 2 wi-fi modem (LV)&lt;/font&gt;" style="rounded=0;whiteSpace=wrap;html=1;" vertex="1" parent="1">
          <mxGeometry x="440" y="500" width="440" height="60" as="geometry" />
        </mxCell>
        <mxCell id="oVEx0SljTwmEqMyn1o7I-2270" value="&lt;font style=&quot;font-size: 18px;&quot;&gt;9 wi-fi modem (LT) + 4 wi-fi modem (LV) + 2 hub, 2 wi-fi modem (TH)&lt;/font&gt;" style="rounded=0;whiteSpace=wrap;html=1;" vertex="1" parent="1">
          <mxGeometry x="440" y="570" width="570" height="60" as="geometry" />
        </mxCell>
        <mxCell id="oVEx0SljTwmEqMyn1o7I-2271" value="&lt;font style=&quot;font-size: 18px;&quot;&gt;9 wi-fi modem (LT) + 4 wi-fi modem (LV) + 2 hub, 2 wi-fi modem (TH)&lt;/font&gt;" style="rounded=0;whiteSpace=wrap;html=1;" vertex="1" parent="1">
          <mxGeometry x="440" y="640" width="570" height="60" as="geometry" />
        </mxCell>
        <mxCell id="oVEx0SljTwmEqMyn1o7I-2272" value="&lt;font style=&quot;font-size: 18px;&quot;&gt;9 wi-fi modem (LT) + 4 wi-fi modem (LV) + 2 hub, 2 wi-fi modem (TH)&lt;/font&gt;" style="rounded=0;whiteSpace=wrap;html=1;" vertex="1" parent="1">
          <mxGeometry x="440" y="710" width="570" height="60" as="geometry" />
        </mxCell>
        <mxCell id="oVEx0SljTwmEqMyn1o7I-2273" value="&lt;font style=&quot;font-size: 18px;&quot;&gt;9 wi-fi modem (LT) + 4 wi-fi modem (LV) + 2 hub, 2 wi-fi modem (TH)&lt;/font&gt;" style="rounded=0;whiteSpace=wrap;html=1;" vertex="1" parent="1">
          <mxGeometry x="440" y="780" width="570" height="60" as="geometry" />
        </mxCell>
        <mxCell id="oVEx0SljTwmEqMyn1o7I-2274" value="&lt;font style=&quot;font-size: 18px;&quot;&gt;9 wi-fi modem (LT) + 4 wi-fi modem (LV) + 2 hub, 2 wi-fi modem (TH)&lt;/font&gt;" style="rounded=0;whiteSpace=wrap;html=1;" vertex="1" parent="1">
          <mxGeometry x="440" y="850" width="570" height="60" as="geometry" />
        </mxCell>
        <mxCell id="oVEx0SljTwmEqMyn1o7I-2277" value="" style="sketch=0;points=[[0.015,0.015,0],[0.985,0.015,0],[0.985,0.985,0],[0.015,0.985,0],[0.25,0,0],[0.5,0,0],[0.75,0,0],[1,0.25,0],[1,0.5,0],[1,0.75,0],[0.75,1,0],[0.5,1,0],[0.25,1,0],[0,0.75,0],[0,0.5,0],[0,0.25,0]];verticalLabelPosition=bottom;html=1;verticalAlign=top;aspect=fixed;align=center;pointerEvents=1;shape=mxgraph.cisco19.rect;prIcon=l3_switch;fillColor=#FAFAFA;strokeColor=#005073;" vertex="1" parent="1">
          <mxGeometry x="1510" y="440" width="50" height="50" as="geometry" />
        </mxCell>
        <mxCell id="oVEx0SljTwmEqMyn1o7I-2278" value="" style="sketch=0;points=[[0.015,0.015,0],[0.985,0.015,0],[0.985,0.985,0],[0.015,0.985,0],[0.25,0,0],[0.5,0,0],[0.75,0,0],[1,0.25,0],[1,0.5,0],[1,0.75,0],[0.75,1,0],[0.5,1,0],[0.25,1,0],[0,0.75,0],[0,0.5,0],[0,0.25,0]];verticalLabelPosition=bottom;html=1;verticalAlign=top;aspect=fixed;align=center;pointerEvents=1;shape=mxgraph.cisco19.rect;prIcon=l3_switch;fillColor=#FAFAFA;strokeColor=#005073;" vertex="1" parent="1">
          <mxGeometry x="1510" y="645" width="50" height="50" as="geometry" />
        </mxCell>
        <mxCell id="oVEx0SljTwmEqMyn1o7I-2279" value="" style="shape=mxgraph.cisco.switches.layer_2_remote_switch;html=1;pointerEvents=1;dashed=0;fillColor=#036897;strokeColor=#ffffff;strokeWidth=2;verticalLabelPosition=bottom;verticalAlign=top;align=center;outlineConnect=0;" vertex="1" parent="1">
          <mxGeometry x="1241" y="550" width="101" height="50" as="geometry" />
        </mxCell>
        <mxCell id="oVEx0SljTwmEqMyn1o7I-2280" value="" style="shape=mxgraph.cisco.switches.layer_2_remote_switch;html=1;pointerEvents=1;dashed=0;fillColor=#036897;strokeColor=#ffffff;strokeWidth=2;verticalLabelPosition=bottom;verticalAlign=top;align=center;outlineConnect=0;" vertex="1" parent="1">
          <mxGeometry x="1241" y="760" width="101" height="50" as="geometry" />
        </mxCell>
      </root>
    </mxGraphModel>
  </diagram>
</mxfile>
